<?xml version="1.0" encoding="UTF-8"?>
<svg width="9px" height="9px" viewBox="0 0 9 9" version="1.1" xmlns="http://www.w3.org/2000/svg" xmlns:xlink="http://www.w3.org/1999/xlink">
    <g  stroke="none" stroke-width="1" fill="none" fill-rule="evenodd">
        <g transform="translate(-1490.000000, -200.000000)" fill="#011F5B" fill-rule="nonzero">
            <g transform="translate(1477.000000, 187.000000)">
                <path d="M21.5662651,22 C21.8554217,22 22,21.9339853 22,21.801956 C22,21.6992665 21.9566265,21.6185819 21.8698795,21.5599022 C21.7831325,21.5012225 21.660241,21.4498778 21.5012048,21.405868 C21.2843373,21.3325183 21.0963855,21.2298289 20.9373494,21.0977995 C20.7783133,20.9657702 20.6120482,20.7603912 20.4385542,20.4816626 L20.4385542,20.4816626 L18.3349398,17.00489 C18.2626506,16.9022005 18.2554217,16.806846 18.313253,16.7188264 L18.313253,16.7188264 L19.6795181,14.6283619 C20.0120482,14.1442543 20.5253012,13.799511 21.2192771,13.594132 C21.3927711,13.5354523 21.5192771,13.4804401 21.5987952,13.4290954 C21.6783133,13.3777506 21.7180723,13.3007335 21.7180723,13.198044 C21.7180723,13.0660147 21.573494,13 21.2843373,13 C21.1831325,13 21.0096386,13.0183374 20.7638554,13.0550122 C20.5180723,13.091687 20.2361446,13.1100244 19.9180723,13.1100244 C19.7590361,13.1100244 19.5457831,13.099022 19.2783133,13.0770171 C19.0108434,13.0550122 18.8409639,13.0440098 18.7686747,13.0440098 C18.4795181,13.0440098 18.3349398,13.1100244 18.3349398,13.2420538 C18.3349398,13.3447433 18.3746988,13.4217604 18.4542169,13.4731051 C18.5337349,13.5244499 18.660241,13.5794621 18.8337349,13.6381418 C19.0216867,13.6968215 19.1156627,13.8141809 19.1156627,13.99022 C19.1156627,14.1515892 19.0578313,14.3129584 18.9421687,14.4743276 L18.9421687,14.4743276 L17.8361446,16.1687042 C17.7638554,16.2713936 17.6987952,16.2713936 17.6409639,16.1687042 L17.6409639,16.1687042 L16.6433735,14.6503667 C16.4554217,14.3422983 16.3614458,14.1075795 16.3614458,13.9462103 C16.3614458,13.8435208 16.4012048,13.7665037 16.4807229,13.7151589 C16.560241,13.6638142 16.6722892,13.6161369 16.8168675,13.5721271 C16.946988,13.5281174 17.0445783,13.4841076 17.1096386,13.4400978 C17.1746988,13.396088 17.2072289,13.3374083 17.2072289,13.2640587 C17.2072289,13.1320293 17.0626506,13.0660147 16.773494,13.0660147 L16.773494,13.0660147 L16.7084337,13.0660147 C16.4481928,13.0660147 16.2674699,13.0733496 16.1662651,13.0880196 L16.1662651,13.0880196 L15.6024096,13.1100244 C15.2409639,13.1100244 14.9156627,13.0953545 14.626506,13.0660147 C14.3951807,13.0366748 14.1277108,13.0220049 13.8240964,13.0220049 C13.5349398,13.0220049 13.3903614,13.0880196 13.3903614,13.2200489 C13.3903614,13.3227384 13.4337349,13.403423 13.5204819,13.4621027 C13.6072289,13.5207824 13.7301205,13.5721271 13.8891566,13.6161369 C14.1060241,13.6748166 14.2831325,13.7701711 14.4204819,13.9022005 C14.5578313,14.0342298 14.713253,14.2469438 14.886747,14.5403423 L14.886747,14.5403423 L16.6650602,17.2909535 C16.7228916,17.3643032 16.7518072,17.4376528 16.7518072,17.5110024 C16.7518072,17.599022 16.7084337,17.6943765 16.6216867,17.797066 L16.6216867,17.797066 L14.9518072,20.1515892 C14.6626506,20.5476773 14.4096386,20.8374083 14.1927711,21.0207824 C13.9759036,21.2041565 13.7445783,21.3325183 13.4987952,21.405868 C13.339759,21.4498778 13.2168675,21.5012225 13.1301205,21.5599022 C13.0433735,21.6185819 13,21.6992665 13,21.801956 C13,21.9339853 13.1445783,22 13.4337349,22 C13.5349398,22 13.686747,21.9853301 13.8891566,21.9559902 C14.3662651,21.9119804 14.6987952,21.8899756 14.886747,21.8899756 C15.1614458,21.8899756 15.4108434,21.8973105 15.6349398,21.9119804 C15.8590361,21.9266504 16.0144578,21.9339853 16.1012048,21.9339853 C16.3903614,21.9339853 16.5349398,21.8679707 16.5349398,21.7359413 C16.5349398,21.6332518 16.4951807,21.5562347 16.4156627,21.50489 C16.3361446,21.4535452 16.2096386,21.398533 16.0361446,21.3398533 C15.9349398,21.3105134 15.8590361,21.2481663 15.8084337,21.1528117 C15.7578313,21.0574572 15.7325301,20.9584352 15.7325301,20.8557457 C15.7325301,20.6797066 15.7686747,20.5403423 15.8409639,20.4376528 L15.8409639,20.4376528 L17.2722892,18.2591687 C17.286747,18.2444988 17.3084337,18.2371638 17.3373494,18.2371638 C17.3662651,18.2371638 17.3879518,18.2444988 17.4024096,18.2591687 L17.4024096,18.2591687 L18.6819277,20.3716381 C18.7686747,20.5183374 18.8120482,20.6503667 18.8120482,20.7677262 C18.8120482,21.002445 18.6096386,21.1784841 18.2048193,21.2958435 C18.0168675,21.3398533 17.8795181,21.3948655 17.7927711,21.4608802 C17.7060241,21.5268949 17.6626506,21.6185819 17.6626506,21.7359413 C17.6626506,21.8826406 17.8289157,21.9559902 18.1614458,21.9559902 C18.4939759,21.9559902 18.7542169,21.9486553 18.9421687,21.9339853 L18.9421687,21.9339853 L19.7445783,21.9119804 C20.1349398,21.9119804 20.4746988,21.9266504 20.7638554,21.9559902 C21.0240964,21.9853301 21.2915663,22 21.5662651,22 Z" id="x"></path>
            </g>
        </g>
    </g>
</svg>