<?xml version="1.0" encoding="UTF-8"?>
<svg width="26px" height="20px" viewBox="0 0 26 20" version="1.1" xmlns="http://www.w3.org/2000/svg" xmlns:xlink="http://www.w3.org/1999/xlink">
    <title>“</title>
    <g id="Symbols" stroke="none" stroke-width="1" fill="none" fill-rule="evenodd">
        <g id="Testimonial-/-Right-Rail-with-image" transform="translate(-206.000000, -280.000000)" fill="#990000" fill-rule="nonzero">
            <g id="Group-2" transform="translate(28.000000, 280.000000)">
                <g id="Testimonial">
                    <g id="Group">
                        <path d="M185.0625,19.6679688 C185.755208,19.6679688 186.404622,19.5504557 187.010742,19.3154297 C187.616862,19.0804036 188.148763,18.764974 188.606445,18.3691406 C189.064128,17.9733073 189.429036,17.5032552 189.701172,16.9589844 C189.973307,16.4147135 190.109375,15.8209635 190.109375,15.1777344 C190.109375,14.5839844 190.010417,14.0273437 189.8125,13.5078125 C189.614583,12.9882812 189.348633,12.5429688 189.014648,12.171875 C188.680664,11.8007812 188.297201,11.5100911 187.864258,11.2998047 C187.431315,11.0895182 186.967448,10.984375 186.472656,10.984375 C186.002604,10.984375 185.625326,11.046224 185.34082,11.1699219 C185.056315,11.2936198 184.802734,11.4296875 184.580078,11.578125 C184.357422,11.7265625 184.140951,11.8626302 183.930664,11.9863281 C183.720378,12.110026 183.454427,12.171875 183.132812,12.171875 C182.835938,12.171875 182.576172,11.9677734 182.353516,11.5595703 C182.130859,11.1513672 182.019531,10.6751302 182.019531,10.1308594 C182.019531,9.21549479 182.229818,8.32486979 182.650391,7.45898438 C183.070964,6.59309896 183.646159,5.7828776 184.375977,5.02832031 C185.105794,4.27376302 185.95931,3.61197917 186.936523,3.04296875 C187.913737,2.47395833 188.971354,2.02864583 190.109375,1.70703125 L190.109375,1.70703125 L190.109375,0 C188.550781,0.0989583333 187.066406,0.463867188 185.65625,1.09472656 C184.246094,1.72558594 183.015299,2.56673177 181.963867,3.61816406 C180.912435,4.66959635 180.071289,5.90039062 179.44043,7.31054687 C178.80957,8.72070312 178.494141,10.2669271 178.494141,11.9492188 C178.494141,13.0130208 178.667318,14.0087891 179.013672,14.9365234 C179.360026,15.8642578 179.830078,16.6806641 180.423828,17.3857422 C181.017578,18.0908203 181.710286,18.6474609 182.501953,19.0556641 C183.29362,19.4638672 184.147135,19.6679688 185.0625,19.6679688 Z M198.458984,19.6679688 C199.151693,19.6679688 199.807292,19.5504557 200.425781,19.3154297 C201.044271,19.0804036 201.582357,18.764974 202.040039,18.3691406 C202.497721,17.9733073 202.856445,17.5032552 203.116211,16.9589844 C203.375977,16.4147135 203.505859,15.8209635 203.505859,15.1777344 C203.505859,14.5839844 203.406901,14.0273437 203.208984,13.5078125 C203.011068,12.9882812 202.745117,12.5429688 202.411133,12.171875 C202.077148,11.8007812 201.693685,11.5100911 201.260742,11.2998047 C200.827799,11.0895182 200.363932,10.984375 199.869141,10.984375 C199.399089,10.984375 199.02181,11.046224 198.737305,11.1699219 C198.452799,11.2936198 198.205404,11.4296875 197.995117,11.578125 C197.784831,11.7265625 197.574544,11.8626302 197.364258,11.9863281 C197.153971,12.110026 196.888021,12.171875 196.566406,12.171875 C196.244792,12.171875 195.978841,11.9677734 195.768555,11.5595703 C195.558268,11.1513672 195.453125,10.6751302 195.453125,10.1308594 C195.453125,9.21549479 195.663411,8.32486979 196.083984,7.45898438 C196.504557,6.59309896 197.073568,5.7828776 197.791016,5.02832031 C198.508464,4.27376302 199.361979,3.61197917 200.351562,3.04296875 C201.341146,2.47395833 202.392578,2.02864583 203.505859,1.70703125 L203.505859,1.70703125 L203.505859,0 C201.947266,0.0989583333 200.469076,0.463867188 199.071289,1.09472656 C197.673503,1.72558594 196.442708,2.56673177 195.378906,3.61816406 C194.315104,4.66959635 193.467773,5.90039062 192.836914,7.31054687 C192.206055,8.72070312 191.890625,10.2669271 191.890625,11.9492188 C191.890625,13.0130208 192.063802,14.0087891 192.410156,14.9365234 C192.75651,15.8642578 193.226562,16.6806641 193.820312,17.3857422 C194.414062,18.0908203 195.106771,18.6474609 195.898438,19.0556641 C196.690104,19.4638672 197.54362,19.6679688 198.458984,19.6679688 Z" id="“"></path>
                    </g>
                </g>
            </g>
        </g>
    </g>
</svg>