<?xml version="1.0" encoding="utf-8"?>
<!-- Generator: Adobe Illustrator 23.0.6, SVG Export Plug-In . SVG Version: 6.00 Build 0)  -->
<svg version="1.1" id="Layer_1" xmlns="http://www.w3.org/2000/svg" xmlns:xlink="http://www.w3.org/1999/xlink" x="0px" y="0px"
	 width="21px" height="14.8px" viewBox="0 0 21 14.8" style="enable-background:new 0 0 21 14.8;" xml:space="preserve">
<style type="text/css">
	.st0{fill:#FFFFFF;}
</style>
<g id="XMLID_822_">
	<path id="XMLID_823_" class="st0" d="M20.2,1.3C19.4,0.4,18,0,15.4,0H5.6C2.9,0,1.5,0.4,0.7,1.4C0,2.3,0,3.7,0,5.6v3.6
		c0,3.7,0.9,5.6,5.6,5.6h9.7c2.3,0,3.6-0.3,4.4-1.1c0.9-0.8,1.2-2.1,1.2-4.5V5.6C21,3.6,20.9,2.2,20.2,1.3z M13.5,7.9l-4.4,2.3
		c-0.1,0.1-0.2,0.1-0.3,0.1s-0.2,0-0.4-0.1S8.1,9.9,8.1,9.6V5c0-0.2,0.1-0.5,0.3-0.6s0.5-0.1,0.7,0l4.4,2.3c0.2,0.1,0.4,0.3,0.4,0.6
		C13.8,7.5,13.7,7.8,13.5,7.9z"/>
</g>
</svg>
