<?xml version="1.0" encoding="UTF-8"?>
<svg width="31px" height="32px" viewBox="0 0 31 32" version="1.1" xmlns="http://www.w3.org/2000/svg" xmlns:xlink="http://www.w3.org/1999/xlink">
    <g stroke="none" stroke-width="1" fill="none" fill-rule="evenodd">
        <g transform="translate(-282.000000, -2377.000000)" fill="#FFF" fill-rule="nonzero">
            <g transform="translate(282.000000, 2377.000000)">
                <g transform="translate(0.360000, 0.500000)">
                    <path d="M18.489078,0.137545449 C17.8925674,0.168608999 17.378095,0.739620081 17.4091635,1.33613138 C17.4402309,1.93264267 18.0112393,2.44711657 18.6077498,2.41604543 L26.4875623,2.41604543 L14.0032811,14.9003266 C13.5386149,15.3121275 13.515632,16.1242988 13.9562685,16.5616569 C14.3969049,16.9990529 15.2088886,16.970078 15.6172186,16.5023779 L28.1014998,4.01811573 L28.1014998,11.9097916 C28.0929896,12.5116725 28.6388096,13.0652645 29.2407498,13.0652645 C29.84269,13.0652645 30.3885118,12.5116725 30.380098,11.9097916 L30.380098,1.27679544 C30.380098,0.680303132 29.8372436,0.137545449 29.2407498,0.137545449 C25.6606202,0.137545449 22.0603164,0.137545449 18.489078,0.137545449 Z M1.02057812,3.93494807 C0.464684122,3.99330666 -0.00298973375,4.51536417 -1.4255743e-05,5.07429541 L-1.4255743e-05,29.3782572 C-1.4255743e-05,29.9747685 0.542749708,30.5175452 1.13924999,30.5175452 L25.4432498,30.5175452 C26.0397501,30.5175452 26.582598,29.9747685 26.582598,29.3782572 L26.582598,14.9477953 C26.59101,14.345922 26.04519,13.79233 25.4432498,13.79233 C24.8413096,13.79233 24.2954877,14.345922 24.3039998,14.9477953 L24.3039998,28.2390452 L2.27849998,28.2390452 L2.27849998,6.2135454 L15.5697499,6.2135454 C16.1716065,6.22201382 16.7251529,5.67621054 16.7251529,5.07429541 C16.7251529,4.47238027 16.1716065,3.92657319 15.5697499,3.93494807 C10.7233747,3.93494807 5.85824446,3.93494807 1.02057812,3.93494807 Z" id="Shape"></path>
                </g>
            </g>
        </g>
    </g>
</svg>