<?xml version="1.0" encoding="UTF-8"?>
<svg width="40px" height="40px" viewBox="0 0 40 40" version="1.1" xmlns="http://www.w3.org/2000/svg" xmlns:xlink="http://www.w3.org/1999/xlink">
    <title>noun_Phone_2510185</title>
    <g id="Symbols" stroke="none" stroke-width="1" fill="none" fill-rule="evenodd">
        <g id="CTA-Band-/-No-links" transform="translate(-78.000000, -55.000000)" fill="#FFFFFF" fill-rule="nonzero">
            <g id="Group" transform="translate(0.000000, 0.000000)">
                <g id="noun_Phone_2510185" transform="translate(78.000000, 55.000000)">
                    <path d="M31.9043422,25.2291422 C31.1296157,24.6917345 30.0811687,24.786574 29.4154533,25.45428 L26.8914,27.9783333 C26.0446933,28.8233067 23.1891156,27.7731689 17.7078844,22.2921511 C12.2262222,16.8104844 11.17652,13.95404 12.0217067,13.1086356 L14.5457778,10.5845822 C15.2136525,9.91883685 15.3084125,8.87016472 14.7706978,8.09548 C13.7817778,6.67171111 10.02912,1.49832889 9.32787556,0.79708 C7.53220444,-0.999457778 3.91568,0.469688889 1.45762222,2.92774667 C-2.58941778,6.97456889 2.06247556,17.9667822 12.048,27.9520667 C19.5956311,35.4996978 27.71816,40.0000667 32.9820711,40.0000667 C34.6822178,40.0000667 36.0842933,39.5304667 37.07232,38.5424267 C39.5303733,36.0843689 40.9993022,32.46828 39.2029867,30.6719556 C38.5017111,29.97092 33.3283289,26.2182711 31.9043422,25.2291422 Z M35.8148267,37.2849467 C32.9358044,40.1626667 23.2051867,36.59412 13.3054444,26.6945956 C3.40592,16.7948533 -0.162844444,7.06336444 2.71511111,4.18521333 C4.28044444,2.62010667 6.11800444,1.78772889 7.23891556,1.78772889 C7.54029863,1.76407116 7.83889315,1.85991177 8.07020889,2.05455111 C8.56954667,2.55388889 11.9448756,7.14499556 13.3098044,9.11000889 C13.3571209,9.17778441 13.3479985,9.26992909 13.2883111,9.32711111 L10.7642533,11.8511689 C8.74127556,13.8739289 10.6012089,17.7006133 16.4504356,23.5496222 C22.2996444,29.3990667 26.1263289,31.259 28.1488889,29.2358044 L30.6729467,26.7117467 C30.7299547,26.6519284 30.8221016,26.6427042 30.8898356,26.6900356 C32.8550667,28.0551911 37.4461733,31.4305111 37.9455111,31.9296356 C38.6756133,32.6599733 37.8879556,35.2113822 35.8148267,37.2849467 Z M38.2086044,19.7958889 C38.1986332,9.85821409 30.1463831,1.80391612 20.2087111,1.79141778 C19.7175876,1.79141778 19.3194533,1.39328351 19.3194533,0.90216 C19.3194533,0.411036491 19.7175876,0.0129022222 20.2087111,0.0129022222 C31.128174,0.0265076399 39.9760496,8.87642313 39.9871378,19.7958889 C39.9871378,20.2870124 39.5890035,20.6851467 39.09788,20.6851467 C38.6067565,20.6851467 38.2086222,20.2870124 38.2086222,19.7958889 L38.2086044,19.7958889 Z M32.8474267,19.7958889 C32.8407718,12.817736 27.1868611,7.16177746 20.2087111,7.15259556 C19.7183626,7.15149933 19.3214369,6.75368532 19.3214369,6.26333556 C19.3214369,5.77298579 19.7183626,5.37517178 20.2087111,5.37407556 C28.168684,5.38429367 34.6182636,11.8359132 34.6259644,19.7958889 C34.6248682,20.2862374 34.2270542,20.6831631 33.7367044,20.6831631 C33.2463547,20.6831631 32.8485407,20.2862374 32.8474444,19.7958889 L32.8474267,19.7958889 Z M29.2647867,19.7958889 C29.2636638,20.2862374 28.8658498,20.6831631 28.3755,20.6831631 C27.8851502,20.6831631 27.4873362,20.2862374 27.48624,19.7958889 C27.4829798,15.7772297 24.2273675,12.5195674 20.2087111,12.5137778 C19.7183626,12.5126816 19.3214369,12.1148675 19.3214369,11.6245178 C19.3214369,11.134168 19.7183626,10.736354 20.2087111,10.7352578 C25.2091613,10.742157 29.2604023,14.7954358 29.2647867,19.7958889 L29.2647867,19.7958889 Z" id="Shape"></path>
                </g>
            </g>
        </g>
    </g>
</svg>