<?xml version="1.0" encoding="UTF-8"?>
<svg width="18px" height="14px" viewBox="0 0 18 14" version="1.1" xmlns="http://www.w3.org/2000/svg" xmlns:xlink="http://www.w3.org/1999/xlink">
    <g stroke="none" stroke-width="1" fill="none" fill-rule="evenodd">
        <g transform="translate(-791.000000, -6212.000000)" fill="#FFF" fill-rule="nonzero">
            <g transform="translate(659.000000, 6194.000000)">
                <path d="M149.6,20.0617677 C148.952221,20.3267932 148.257164,20.5065304 147.526878,20.5867736 C148.272549,20.1744852 148.843343,19.5205379 149.113871,18.7437034 C148.414414,19.125509 147.642342,19.4027488 146.819684,19.5530388 C146.16092,18.9041632 145.223891,18.5 144.184569,18.5 C142.190647,18.5 140.573946,19.9927299 140.573946,21.8327465 C140.573946,22.0937094 140.605839,22.3485916 140.667439,22.5923216 C137.667209,22.4531838 135.006815,21.1259853 133.22625,19.1092585 C132.915,19.6007545 132.737936,20.1734496 132.737936,20.7847793 C132.737936,21.9414014 133.375822,22.9619393 134.343651,23.55901 C133.751951,23.5407416 133.19545,23.3904516 132.708257,23.140641 L132.708257,23.1822761 C132.708257,24.7968577 133.953229,26.1443693 135.604009,26.4510564 C135.301558,26.5262014 134.98263,26.5678365 134.652687,26.5678365 C134.419544,26.5678365 134.194079,26.5465144 133.973015,26.5058883 C134.432715,27.8310688 135.765687,28.7947302 137.345002,28.8211505 C136.109923,29.7147651 134.552608,30.2458516 132.861136,30.2458516 C132.5697,30.2458516 132.282636,30.2296012 132,30.2001539 C133.598008,31.1475914 135.495159,31.7 137.534174,31.7 C144.175826,31.7 147.806264,26.6206504 147.806264,22.2155876 L147.794157,21.7840217 C148.503507,21.3168748 149.117178,20.7299474 149.6,20.0617677 Z"></path>
            </g>
        </g>
    </g>
</svg>