<?xml version="1.0" encoding="utf-8"?>
<!-- Generator: Adobe Illustrator 23.0.6, SVG Export Plug-In . SVG Version: 6.00 Build 0)  -->
<svg version="1.1" id="Layer_1" xmlns="http://www.w3.org/2000/svg" xmlns:xlink="http://www.w3.org/1999/xlink" x="0px" y="0px"
	 width="17px" height="16px" viewBox="0 0 17 16" style="enable-background:new 0 0 17 16;" xml:space="preserve">
<style type="text/css">
	.st0{fill:#FFFFFF;}
</style>
<g>
	<g transform="translate(-733.000000, -6210.000000)">
		<g transform="translate(659.000000, 6194.000000)">
			<path id="Path" class="st0" d="M89.6,16H74.9c-0.5,0-0.9,0.4-0.9,0.8v13.7c0,0.5,0.4,0.9,0.9,0.9h7.9v-6h-2.2v-2.3h2.2v-1.7
				c0-2,1.3-3.1,3.2-3.1c0.9,0,1.7,0.1,1.9,0.1v2.1l-1.3,0c-1,0-1.2,0.5-1.2,1.1v1.5h2.5l-0.3,2.3h-2.1v6h4.2c0.5,0,0.9-0.4,0.9-0.8
				V16.8C90.5,16.4,90.1,16,89.6,16z"/>
		</g>
	</g>
</g>
</svg>
