<?xml version="1.0" encoding="utf-8"?>
<!-- Generator: Adobe Illustrator 23.0.6, SVG Export Plug-In . SVG Version: 6.00 Build 0)  -->
<svg version="1.1" id="Layer_1" xmlns="http://www.w3.org/2000/svg" xmlns:xlink="http://www.w3.org/1999/xlink" x="0px" y="0px"
	 width="40px" height="42px" viewBox="0 0 40 42" style="enable-background:new 0 0 40 42;" xml:space="preserve">
<style type="text/css">
	.st0{fill:#011F5B;}
</style>
<g id="Not-Approved-Yet">
	<g transform="translate(-486.000000, -1275.000000)">
		<g transform="translate(194.000000, 1226.000000)">
			<g id="Group-15">
				<g transform="translate(50.000000, 49.000000)">
					<g id="Group-6">
						<g id="noun_office-building_1317467" transform="translate(242.000000, 0.000000)">
							<path id="Shape" class="st0" d="M18,18.4h-1.3v-1.3H18V18.4z M18,14.4h-1.3v1.3H18V14.4z M18,11.8h-1.3v1.3H18V11.8z M18,9.2
								h-1.3v1.3H18V9.2z M18,6.6h-1.3v1.3H18V6.6z M18,19.7h-1.3V21H18V19.7z M18,22.3h-1.3v1.3H18V22.3z M18,24.9h-1.3v1.3H18
								V24.9z M18,27.6h-1.3v1.3H18V27.6z M18,30.2h-1.3v1.3H18V30.2z M18,32.8h-1.3v1.3H18V32.8z M16.7,36.8H18v-1.3h-1.3V36.8z
								 M20.7,17.1h-1.3v1.3h1.3V17.1z M22,18.4h1.3v-1.3H22V18.4z M20.7,14.4h-1.3v1.3h1.3V14.4z M20.7,11.8h-1.3v1.3h1.3V11.8z
								 M20.7,9.2h-1.3v1.3h1.3V9.2z M20.7,6.6h-1.3v1.3h1.3V6.6z M20.7,19.7h-1.3V21h1.3V19.7z M20.7,22.3h-1.3v1.3h1.3V22.3z
								 M20.7,24.9h-1.3v1.3h1.3V24.9z M20.7,27.6h-1.3v1.3h1.3V27.6z M20.7,30.2h-1.3v1.3h1.3V30.2z M20.7,32.8h-1.3v1.3h1.3V32.8z
								 M19.3,36.8h1.3v-1.3h-1.3V36.8z M23.3,14.4H22v1.3h1.3V14.4z M15.3,17.1H14v1.3h1.3V17.1z M15.3,14.4H14v1.3h1.3V14.4z
								 M15.3,11.8H14v1.3h1.3V11.8z M15.3,9.2H14v1.3h1.3V9.2z M15.3,19.7H14V21h1.3V19.7z M15.3,22.3H14v1.3h1.3V22.3z M15.3,24.9
								H14v1.3h1.3V24.9z M15.3,27.6H14v1.3h1.3V27.6z M15.3,30.2H14v1.3h1.3V30.2z M15.3,32.8H14v1.3h1.3V32.8z M14,36.8h1.3v-1.3
								H14V36.8z M12.7,17.1h-1.3v1.3h1.3V17.1z M12.7,19.7h-1.3V21h1.3V19.7z M12.7,22.3h-1.3v1.3h1.3V22.3z M12.7,24.9h-1.3v1.3
								h1.3V24.9z M12.7,27.6h-1.3v1.3h1.3V27.6z M12.7,30.2h-1.3v1.3h1.3V30.2z M12.7,32.8h-1.3v1.3h1.3V32.8z M11.3,36.8h1.3v-1.3
								h-1.3V36.8z M10,19.7H8.7V21H10V19.7z M10,22.3H8.7v1.3H10V22.3z M8.7,26.2H10v-1.3H8.7V26.2z M7.3,18.1l5.3-3.3V7.6L22,1.5
								v9.4l2.7,2v2.9H26v-3.6l-2.7-2V0h-1.5L11.3,6.9v7.2L6,17.4v6.2h1.3V18.1z M31.3,22.3h-6.7v1.3h6.7V22.3z M31.3,24.9h-6.7v1.3
								h6.7V24.9z M31.3,27.6h-6.7v1.3h6.7V27.6z M31.3,30.2h-6.7v1.3h6.7V30.2z M29.3,32.8h-4.7v1.3h4.7V32.8z M24.7,36.8h2.7v-1.3
								h-2.7V36.8z M40,38.1V42h-1.3v-2.6h-2h-6H1.3V42H0v-3.9h6v-1.4c-1.5-0.3-2.7-1.6-2.7-3.2c0-2,2.5-7.5,2.7-8.1
								C6.1,25.1,6.3,25,6.6,25c0.3,0,0.5,0.1,0.6,0.4c0.3,0.6,2.7,6.1,2.7,8.1c0,1.6-1.1,2.9-2.7,3.2v1.4H22V19.7h2.7v-2.6h6.7v2.6
								H34v11.8h-1.3V21h-9.3v17.1h5.5c-0.1-0.2-0.1-0.4-0.1-0.7c0-0.9,0.6-1.6,1.4-1.9c0.3-1.6,1.7-2.7,3.3-2.7s2.9,1.1,3.3,2.6
								c1.1-0.1,2.1,0.9,2.1,2c0,0.3-0.1,0.5-0.1,0.7C38.8,38.1,40,38.1,40,38.1z M26,19.7h4v-1.3h-4V19.7z M6,35.3v-2.5h1.3v2.5
								c0.8-0.3,1.3-1,1.3-1.8c0-1.2-1.1-4.2-2-6.2c-0.9,2-2,5.1-2,6.2C4.7,34.3,5.2,35,6,35.3z M36.7,38.1c0.4,0,0.7-0.3,0.7-0.7
								c0-0.5-0.5-0.9-1-0.6c-0.2,0.1-0.5,0.1-0.7,0s-0.3-0.4-0.3-0.6c0-0.1,0-0.1,0-0.1c0-1.1-0.9-2-2-2s-2,0.9-2,2
								c0,0.4-0.3,0.7-0.7,0.7c-0.4,0-0.7,0.3-0.7,0.7s0.3,0.7,0.7,0.7h6V38.1z"/>
						</g>
					</g>
				</g>
			</g>
		</g>
	</g>
</g>
</svg>
