<svg xmlns="http://www.w3.org/2000/svg" xmlns:xlink="http://www.w3.org/1999/xlink" width="26" height="26" viewBox="0 0 26 26">
	<g transform="translate(-1300 -27)"><path d="M1309.659 43.73c-3.884 0-7.043-3.165-7.043-7.055 0-3.89 3.16-7.054 7.043-7.054s7.042 3.164 7.042 7.054-3.16 7.054-7.042 7.054zm16.168 6.468l-8.134-8.148a9.619 9.619 0 0 0 1.624-5.375 9.62 9.62 0 0 0-2.829-6.841 9.587 9.587 0 0 0-6.83-2.834 9.588 9.588 0 0 0-6.83 2.834 9.621 9.621 0 0 0-2.828 6.841 9.62 9.62 0 0 0 2.83 6.842 9.587 9.587 0 0 0 6.829 2.834c1.96 0 3.832-.582 5.418-1.663l8.126 8.14c.274.274.779.214 1.126-.134l1.366-1.368c.347-.348.407-.853.132-1.128z"/></g>
</svg>