<?xml version="1.0" encoding="UTF-8"?>
<svg width="40px" height="42px" viewBox="0 0 40 42" version="1.1" xmlns="http://www.w3.org/2000/svg" xmlns:xlink="http://www.w3.org/1999/xlink">
    <!-- Generator: Sketch 64 (93537) - https://sketch.com -->
    <title>noun_office building_1317467</title>
    <desc>Created with Sketch.</desc>
    <g id="Not-Approved-Yet" stroke="none" stroke-width="1" fill="none" fill-rule="evenodd">
        <g id="Admissions-&amp;-Aid" transform="translate(-486.000000, -1275.000000)" fill="#82AFD3" fill-rule="nonzero">
            <g id="Offices-/-2-column" transform="translate(194.000000, 1226.000000)">
                <g id="Group-15">
                    <g id="Offices/-1-column" transform="translate(50.000000, 49.000000)">
                        <g id="Group-6">
                            <g id="noun_office-building_1317467" transform="translate(242.000000, 0.000000)">
                                <path d="M18,18.375 L16.6666667,18.375 L16.6666667,17.0625 L18,17.0625 L18,18.375 Z M18,14.4375 L16.6666667,14.4375 L16.6666667,15.75 L18,15.75 L18,14.4375 Z M18,11.8125 L16.6666667,11.8125 L16.6666667,13.125 L18,13.125 L18,11.8125 Z M18,9.1875 L16.6666667,9.1875 L16.6666667,10.5 L18,10.5 L18,9.1875 Z M18,6.5625 L16.6666667,6.5625 L16.6666667,7.875 L18,7.875 L18,6.5625 Z M18,19.6875 L16.6666667,19.6875 L16.6666667,21 L18,21 L18,19.6875 Z M18,22.3125 L16.6666667,22.3125 L16.6666667,23.625 L18,23.625 L18,22.3125 Z M18,24.9375 L16.6666667,24.9375 L16.6666667,26.25 L18,26.25 L18,24.9375 Z M18,27.5625 L16.6666667,27.5625 L16.6666667,28.875 L18,28.875 L18,27.5625 Z M18,30.1875 L16.6666667,30.1875 L16.6666667,31.5 L18,31.5 L18,30.1875 Z M18,32.8125 L16.6666667,32.8125 L16.6666667,34.125 L18,34.125 L18,32.8125 Z M16.6666667,36.75 L18,36.75 L18,35.4375 L16.6666667,35.4375 L16.6666667,36.75 Z M20.6666667,17.0625 L19.3333333,17.0625 L19.3333333,18.375 L20.6666667,18.375 L20.6666667,17.0625 Z M22,18.375 L23.3333333,18.375 L23.3333333,17.0625 L22,17.0625 L22,18.375 Z M20.6666667,14.4375 L19.3333333,14.4375 L19.3333333,15.75 L20.6666667,15.75 L20.6666667,14.4375 Z M20.6666667,11.8125 L19.3333333,11.8125 L19.3333333,13.125 L20.6666667,13.125 L20.6666667,11.8125 Z M20.6666667,9.1875 L19.3333333,9.1875 L19.3333333,10.5 L20.6666667,10.5 L20.6666667,9.1875 Z M20.6666667,6.5625 L19.3333333,6.5625 L19.3333333,7.875 L20.6666667,7.875 L20.6666667,6.5625 Z M20.6666667,19.6875 L19.3333333,19.6875 L19.3333333,21 L20.6666667,21 L20.6666667,19.6875 Z M20.6666667,22.3125 L19.3333333,22.3125 L19.3333333,23.625 L20.6666667,23.625 L20.6666667,22.3125 Z M20.6666667,24.9375 L19.3333333,24.9375 L19.3333333,26.25 L20.6666667,26.25 L20.6666667,24.9375 Z M20.6666667,27.5625 L19.3333333,27.5625 L19.3333333,28.875 L20.6666667,28.875 L20.6666667,27.5625 Z M20.6666667,30.1875 L19.3333333,30.1875 L19.3333333,31.5 L20.6666667,31.5 L20.6666667,30.1875 Z M20.6666667,32.8125 L19.3333333,32.8125 L19.3333333,34.125 L20.6666667,34.125 L20.6666667,32.8125 Z M19.3333333,36.75 L20.6666667,36.75 L20.6666667,35.4375 L19.3333333,35.4375 L19.3333333,36.75 Z M23.3333333,14.4375 L22,14.4375 L22,15.75 L23.3333333,15.75 L23.3333333,14.4375 Z M15.3333333,17.0625 L14,17.0625 L14,18.375 L15.3333333,18.375 L15.3333333,17.0625 Z M15.3333333,14.4375 L14,14.4375 L14,15.75 L15.3333333,15.75 L15.3333333,14.4375 Z M15.3333333,11.8125 L14,11.8125 L14,13.125 L15.3333333,13.125 L15.3333333,11.8125 Z M15.3333333,9.1875 L14,9.1875 L14,10.5 L15.3333333,10.5 L15.3333333,9.1875 Z M15.3333333,19.6875 L14,19.6875 L14,21 L15.3333333,21 L15.3333333,19.6875 Z M15.3333333,22.3125 L14,22.3125 L14,23.625 L15.3333333,23.625 L15.3333333,22.3125 Z M15.3333333,24.9375 L14,24.9375 L14,26.25 L15.3333333,26.25 L15.3333333,24.9375 Z M15.3333333,27.5625 L14,27.5625 L14,28.875 L15.3333333,28.875 L15.3333333,27.5625 Z M15.3333333,30.1875 L14,30.1875 L14,31.5 L15.3333333,31.5 L15.3333333,30.1875 Z M15.3333333,32.8125 L14,32.8125 L14,34.125 L15.3333333,34.125 L15.3333333,32.8125 Z M14,36.75 L15.3333333,36.75 L15.3333333,35.4375 L14,35.4375 L14,36.75 Z M12.6666667,17.0625 L11.3333333,17.0625 L11.3333333,18.375 L12.6666667,18.375 L12.6666667,17.0625 Z M12.6666667,19.6875 L11.3333333,19.6875 L11.3333333,21 L12.6666667,21 L12.6666667,19.6875 Z M12.6666667,22.3125 L11.3333333,22.3125 L11.3333333,23.625 L12.6666667,23.625 L12.6666667,22.3125 Z M12.6666667,24.9375 L11.3333333,24.9375 L11.3333333,26.25 L12.6666667,26.25 L12.6666667,24.9375 Z M12.6666667,27.5625 L11.3333333,27.5625 L11.3333333,28.875 L12.6666667,28.875 L12.6666667,27.5625 Z M12.6666667,30.1875 L11.3333333,30.1875 L11.3333333,31.5 L12.6666667,31.5 L12.6666667,30.1875 Z M12.6666667,32.8125 L11.3333333,32.8125 L11.3333333,34.125 L12.6666667,34.125 L12.6666667,32.8125 Z M11.3333333,36.75 L12.6666667,36.75 L12.6666667,35.4375 L11.3333333,35.4375 L11.3333333,36.75 Z M10,19.6875 L8.66666667,19.6875 L8.66666667,21 L10,21 L10,19.6875 Z M10,22.3125 L8.66666667,22.3125 L8.66666667,23.625 L10,23.625 L10,22.3125 Z M8.66666667,26.25 L10,26.25 L10,24.9375 L8.66666667,24.9375 L8.66666667,26.25 Z M7.33333333,18.1125 L12.6666667,14.83125 L12.6666667,7.6125 L22,1.509375 L22,10.89375 L24.6666667,12.8625 L24.6666667,15.75 L26,15.75 L26,12.140625 L23.3333333,10.171875 L23.3333333,0 L21.8,0 L11.3333333,6.890625 L11.3333333,14.109375 L6,17.390625 L6,23.625 L7.33333333,23.625 L7.33333333,18.1125 Z M31.3333333,22.3125 L24.6666667,22.3125 L24.6666667,23.625 L31.3333333,23.625 L31.3333333,22.3125 Z M31.3333333,24.9375 L24.6666667,24.9375 L24.6666667,26.25 L31.3333333,26.25 L31.3333333,24.9375 Z M31.3333333,27.5625 L24.6666667,27.5625 L24.6666667,28.875 L31.3333333,28.875 L31.3333333,27.5625 Z M31.3333333,30.1875 L24.6666667,30.1875 L24.6666667,31.5 L31.3333333,31.5 L31.3333333,30.1875 Z M29.3333333,32.8125 L24.6666667,32.8125 L24.6666667,34.125 L29.3333333,34.125 L29.3333333,32.8125 Z M24.6666667,36.75 L27.3333333,36.75 L27.3333333,35.4375 L24.6666667,35.4375 L24.6666667,36.75 Z M40,38.0625 L40,42 L38.6666667,42 L38.6666667,39.375 L36.6666667,39.375 L30.6666667,39.375 L1.33333333,39.375 L1.33333333,42 L0,42 L0,38.0625 L6,38.0625 L6,36.684375 C4.46666667,36.35625 3.33333333,35.04375 3.33333333,33.46875 C3.33333333,31.434375 5.8,25.921875 6.06666667,25.33125 C6.2,25.06875 6.4,24.9375 6.66666667,24.9375 C6.93333333,24.9375 7.2,25.06875 7.26666667,25.33125 C7.53333333,25.921875 10,31.434375 10,33.46875 C10,35.04375 8.86666667,36.35625 7.33333333,36.684375 L7.33333333,38.0625 L22,38.0625 L22,19.6875 L24.6666667,19.6875 L24.6666667,17.0625 L31.3333333,17.0625 L31.3333333,19.6875 L34,19.6875 L34,31.5 L32.6666667,31.5 L32.6666667,21 L23.3333333,21 L23.3333333,38.0625 L28.8,38.0625 C28.7333333,37.865625 28.6666667,37.66875 28.6666667,37.40625 C28.6666667,36.553125 29.2666667,35.765625 30.0666667,35.503125 C30.3333333,33.928125 31.7333333,32.8125 33.3333333,32.8125 C34.9333333,32.8125 36.2666667,33.928125 36.6,35.4375 C37.7333333,35.371875 38.6666667,36.290625 38.6666667,37.40625 C38.6666667,37.66875 38.6,37.865625 38.5333333,38.0625 L40,38.0625 Z M26,19.6875 L30,19.6875 L30,18.375 L26,18.375 L26,19.6875 Z M6,35.30625 L6,32.8125 L7.33333333,32.8125 L7.33333333,35.30625 C8.13333333,35.04375 8.66666667,34.321875 8.66666667,33.46875 C8.66666667,32.2875 7.53333333,29.26875 6.66666667,27.234375 C5.8,29.26875 4.66666667,32.2875 4.66666667,33.46875 C4.66666667,34.321875 5.2,35.04375 6,35.30625 Z M36.6666667,38.0625 C37.0666667,38.0625 37.3333333,37.8 37.3333333,37.40625 C37.3333333,36.946875 36.8,36.553125 36.3333333,36.815625 C36.1333333,36.946875 35.8666667,36.946875 35.6666667,36.815625 C35.4666667,36.684375 35.3333333,36.421875 35.3333333,36.225 C35.3333333,36.159375 35.3333333,36.159375 35.3333333,36.09375 C35.3333333,34.978125 34.4666667,34.125 33.3333333,34.125 C32.2,34.125 31.3333333,34.978125 31.3333333,36.09375 C31.3333333,36.4875 31.0666667,36.75 30.6666667,36.75 C30.2666667,36.75 30,37.0125 30,37.40625 C30,37.8 30.2666667,38.0625 30.6666667,38.0625 L36.6666667,38.0625 Z" id="Shape"></path>
                            </g>
                        </g>
                    </g>
                </g>
            </g>
        </g>
    </g>
</svg>